<?xml version="1.0" encoding="UTF-8" standalone="no"?>
<!DOCTYPE svg PUBLIC "-//W3C//DTD SVG 1.1//EN"
 "http://www.w3.org/Graphics/SVG/1.1/DTD/svg11.dtd">
<!-- Generated by graphviz version 2.43.0 (0)
 -->
<!-- Title: api.h Pages: 1 -->
<svg width="272pt" height="196pt"
 viewBox="0.00 0.00 272.00 196.00" xmlns="http://www.w3.org/2000/svg" xmlns:xlink="http://www.w3.org/1999/xlink">
<g id="graph0" class="graph" transform="scale(1 1) rotate(0) translate(4 192)">
<title>api.h</title>
<polygon fill="white" stroke="transparent" points="-4,4 -4,-192 268,-192 268,4 -4,4"/>
<!-- Node1 -->
<g id="node1" class="node">
<title>Node1</title>
<g id="a_node1"><a xlink:title=" ">
<polygon fill="#bfbfbf" stroke="black" points="120.5,-168.5 120.5,-187.5 158.5,-187.5 158.5,-168.5 120.5,-168.5"/>
<text text-anchor="middle" x="139.5" y="-175.5" font-family="Helvetica,sans-Serif" font-size="10.00">api.h</text>
</a>
</g>
</g>
<!-- Node2 -->
<g id="node2" class="node">
<title>Node2</title>
<g id="a_node2"><a xlink:href="gate_8h.html" target="_top" xlink:title=" ">
<polygon fill="white" stroke="black" points="8.5,-112.5 8.5,-131.5 52.5,-131.5 52.5,-112.5 8.5,-112.5"/>
<text text-anchor="middle" x="30.5" y="-119.5" font-family="Helvetica,sans-Serif" font-size="10.00">gate.h</text>
</a>
</g>
</g>
<!-- Node1&#45;&gt;Node2 -->
<g id="edge1" class="edge">
<title>Node1&#45;&gt;Node2</title>
<path fill="none" stroke="midnightblue" d="M112.98,-163.86C92.77,-153.85 65.51,-140.35 47.97,-131.65"/>
<polygon fill="midnightblue" stroke="midnightblue" points="111.47,-167.02 121.99,-168.32 114.58,-160.75 111.47,-167.02"/>
</g>
<!-- Node4 -->
<g id="node4" class="node">
<title>Node4</title>
<g id="a_node4"><a xlink:href="global__vars_8h.html" target="_top" xlink:title=" ">
<polygon fill="white" stroke="black" points="70.5,-112.5 70.5,-131.5 144.5,-131.5 144.5,-112.5 70.5,-112.5"/>
<text text-anchor="middle" x="107.5" y="-119.5" font-family="Helvetica,sans-Serif" font-size="10.00">global_vars.h</text>
</a>
</g>
</g>
<!-- Node1&#45;&gt;Node4 -->
<g id="edge3" class="edge">
<title>Node1&#45;&gt;Node4</title>
<path fill="none" stroke="midnightblue" d="M129,-159.27C123.53,-150.05 117.08,-139.17 112.69,-131.75"/>
<polygon fill="midnightblue" stroke="midnightblue" points="126.11,-161.26 134.22,-168.08 132.13,-157.7 126.11,-161.26"/>
</g>
<!-- Node5 -->
<g id="node5" class="node">
<title>Node5</title>
<g id="a_node5"><a xlink:href="tag__decoder_8h.html" target="_top" xlink:title=" ">
<polygon fill="white" stroke="black" points="91,-56.5 91,-75.5 168,-75.5 168,-56.5 91,-56.5"/>
<text text-anchor="middle" x="129.5" y="-63.5" font-family="Helvetica,sans-Serif" font-size="10.00">tag_decoder.h</text>
</a>
</g>
</g>
<!-- Node1&#45;&gt;Node5 -->
<g id="edge9" class="edge">
<title>Node1&#45;&gt;Node5</title>
<path fill="none" stroke="midnightblue" d="M147.88,-158.84C152.84,-145.76 157.43,-127.73 153.5,-112 150.11,-98.43 141.76,-84.47 135.87,-75.77"/>
<polygon fill="midnightblue" stroke="midnightblue" points="144.63,-157.55 143.99,-168.13 151.09,-160.26 144.63,-157.55"/>
</g>
<!-- Node7 -->
<g id="node7" class="node">
<title>Node7</title>
<g id="a_node7"><a xlink:href="reader_8h.html" target="_top" xlink:title=" ">
<polygon fill="white" stroke="black" points="201,-112.5 201,-131.5 252,-131.5 252,-112.5 201,-112.5"/>
<text text-anchor="middle" x="226.5" y="-119.5" font-family="Helvetica,sans-Serif" font-size="10.00">reader.h</text>
</a>
</g>
</g>
<!-- Node1&#45;&gt;Node7 -->
<g id="edge7" class="edge">
<title>Node1&#45;&gt;Node7</title>
<path fill="none" stroke="midnightblue" d="M162.22,-162.9C178.17,-153 199,-140.07 212.56,-131.65"/>
<polygon fill="midnightblue" stroke="midnightblue" points="160.13,-160.08 153.48,-168.32 163.82,-166.02 160.13,-160.08"/>
</g>
<!-- Node3 -->
<g id="node3" class="node">
<title>Node3</title>
<g id="a_node3"><a xlink:href="gate__impl_8h.html" target="_top" xlink:title=" ">
<polygon fill="white" stroke="black" points="0,-56.5 0,-75.5 67,-75.5 67,-56.5 0,-56.5"/>
<text text-anchor="middle" x="33.5" y="-63.5" font-family="Helvetica,sans-Serif" font-size="10.00">gate_impl.h</text>
</a>
</g>
</g>
<!-- Node2&#45;&gt;Node3 -->
<g id="edge2" class="edge">
<title>Node2&#45;&gt;Node3</title>
<path fill="none" stroke="midnightblue" d="M31.57,-101.8C32.06,-92.91 32.62,-82.78 33.01,-75.75"/>
<polygon fill="midnightblue" stroke="midnightblue" points="28.06,-101.9 31,-112.08 35.04,-102.29 28.06,-101.9"/>
</g>
<!-- Node4&#45;&gt;Node3 -->
<g id="edge6" class="edge">
<title>Node4&#45;&gt;Node3</title>
<path fill="none" stroke="midnightblue" d="M87.47,-106.38C74.09,-96.62 56.94,-84.11 45.61,-75.83"/>
<polygon fill="midnightblue" stroke="midnightblue" points="85.47,-109.26 95.61,-112.32 89.6,-103.6 85.47,-109.26"/>
</g>
<!-- Node4&#45;&gt;Node5 -->
<g id="edge4" class="edge">
<title>Node4&#45;&gt;Node5</title>
<path fill="none" stroke="midnightblue" d="M114.96,-102.69C118.67,-93.59 122.98,-83.01 125.93,-75.75"/>
<polygon fill="midnightblue" stroke="midnightblue" points="111.66,-101.5 111.13,-112.08 118.15,-104.14 111.66,-101.5"/>
</g>
<!-- Node6 -->
<g id="node6" class="node">
<title>Node6</title>
<g id="a_node6"><a xlink:href="tag__decoder__impl_8h.html" target="_top" xlink:title=" ">
<polygon fill="white" stroke="black" points="79,-0.5 79,-19.5 180,-19.5 180,-0.5 79,-0.5"/>
<text text-anchor="middle" x="129.5" y="-7.5" font-family="Helvetica,sans-Serif" font-size="10.00">tag_decoder_impl.h</text>
</a>
</g>
</g>
<!-- Node5&#45;&gt;Node6 -->
<g id="edge5" class="edge">
<title>Node5&#45;&gt;Node6</title>
<path fill="none" stroke="midnightblue" d="M129.5,-45.8C129.5,-36.91 129.5,-26.78 129.5,-19.75"/>
<polygon fill="midnightblue" stroke="midnightblue" points="126,-46.08 129.5,-56.08 133,-46.08 126,-46.08"/>
</g>
<!-- Node8 -->
<g id="node8" class="node">
<title>Node8</title>
<g id="a_node8"><a xlink:href="reader__impl_8h.html" target="_top" xlink:title=" ">
<polygon fill="white" stroke="black" points="189,-56.5 189,-75.5 264,-75.5 264,-56.5 189,-56.5"/>
<text text-anchor="middle" x="226.5" y="-63.5" font-family="Helvetica,sans-Serif" font-size="10.00">reader_impl.h</text>
</a>
</g>
</g>
<!-- Node7&#45;&gt;Node8 -->
<g id="edge8" class="edge">
<title>Node7&#45;&gt;Node8</title>
<path fill="none" stroke="midnightblue" d="M226.5,-101.8C226.5,-92.91 226.5,-82.78 226.5,-75.75"/>
<polygon fill="midnightblue" stroke="midnightblue" points="223,-102.08 226.5,-112.08 230,-102.08 223,-102.08"/>
</g>
</g>
</svg>
