<?xml version="1.0" encoding="UTF-8" standalone="no"?>
<!DOCTYPE svg PUBLIC "-//W3C//DTD SVG 1.1//EN"
 "http://www.w3.org/Graphics/SVG/1.1/DTD/svg11.dtd">
<!-- Generated by graphviz version 2.43.0 (0)
 -->
<!-- Title: gate_impl.h Pages: 1 -->
<svg width="591pt" height="207pt"
 viewBox="0.00 0.00 590.50 207.00" xmlns="http://www.w3.org/2000/svg" xmlns:xlink="http://www.w3.org/1999/xlink">
<g id="graph0" class="graph" transform="scale(1 1) rotate(0) translate(4 203)">
<title>gate_impl.h</title>
<polygon fill="white" stroke="transparent" points="-4,4 -4,-203 586.5,-203 586.5,4 -4,4"/>
<!-- Node1 -->
<g id="node1" class="node">
<title>Node1</title>
<g id="a_node1"><a xlink:title=" ">
<polygon fill="#bfbfbf" stroke="black" points="214.5,-179.5 214.5,-198.5 281.5,-198.5 281.5,-179.5 214.5,-179.5"/>
<text text-anchor="middle" x="248" y="-186.5" font-family="Helvetica,sans-Serif" font-size="10.00">gate_impl.h</text>
</a>
</g>
</g>
<!-- Node2 -->
<g id="node2" class="node">
<title>Node2</title>
<g id="a_node2"><a xlink:href="gate_8h.html" target="_top" xlink:title=" ">
<polygon fill="white" stroke="black" points="102.5,-118 102.5,-137 215.5,-137 215.5,-118 102.5,-118"/>
<text text-anchor="middle" x="159" y="-125" font-family="Helvetica,sans-Serif" font-size="10.00">gnuradio/reader/gate.h</text>
</a>
</g>
</g>
<!-- Node1&#45;&gt;Node2 -->
<g id="edge1" class="edge">
<title>Node1&#45;&gt;Node2</title>
<path fill="none" stroke="midnightblue" d="M235.25,-179.48C220.97,-169.93 197.6,-154.31 180.49,-142.87"/>
<polygon fill="midnightblue" stroke="midnightblue" points="181.99,-139.66 171.73,-137.01 178.1,-145.48 181.99,-139.66"/>
</g>
<!-- Node6 -->
<g id="node6" class="node">
<title>Node6</title>
<g id="a_node6"><a xlink:href="global__vars_8h.html" target="_top" xlink:title=" ">
<polygon fill="white" stroke="black" points="276,-112.5 276,-142.5 388,-142.5 388,-112.5 276,-112.5"/>
<text text-anchor="start" x="284" y="-130.5" font-family="Helvetica,sans-Serif" font-size="10.00">gnuradio/reader/global</text>
<text text-anchor="middle" x="332" y="-119.5" font-family="Helvetica,sans-Serif" font-size="10.00">_vars.h</text>
</a>
</g>
</g>
<!-- Node1&#45;&gt;Node6 -->
<g id="edge5" class="edge">
<title>Node1&#45;&gt;Node6</title>
<path fill="none" stroke="midnightblue" d="M260.04,-179.48C271.41,-171.42 288.91,-159.02 303.8,-148.47"/>
<polygon fill="midnightblue" stroke="midnightblue" points="306.07,-151.16 312.2,-142.52 302.02,-145.45 306.07,-151.16"/>
</g>
<!-- Node7 -->
<g id="node7" class="node">
<title>Node7</title>
<g id="a_node7"><a xlink:title=" ">
<polygon fill="white" stroke="#bfbfbf" points="231,-56.5 231,-75.5 275,-75.5 275,-56.5 231,-56.5"/>
<text text-anchor="middle" x="253" y="-63.5" font-family="Helvetica,sans-Serif" font-size="10.00">vector</text>
</a>
</g>
</g>
<!-- Node1&#45;&gt;Node7 -->
<g id="edge12" class="edge">
<title>Node1&#45;&gt;Node7</title>
<path fill="none" stroke="midnightblue" d="M248.36,-179.3C249.16,-159.85 251.12,-112.49 252.22,-85.9"/>
<polygon fill="midnightblue" stroke="midnightblue" points="255.73,-85.76 252.64,-75.62 248.73,-85.47 255.73,-85.76"/>
</g>
<!-- Node3 -->
<g id="node3" class="node">
<title>Node3</title>
<g id="a_node3"><a xlink:title=" ">
<polygon fill="white" stroke="#bfbfbf" points="0,-56.5 0,-75.5 88,-75.5 88,-56.5 0,-56.5"/>
<text text-anchor="middle" x="44" y="-63.5" font-family="Helvetica,sans-Serif" font-size="10.00">gnuradio/block.h</text>
</a>
</g>
</g>
<!-- Node2&#45;&gt;Node3 -->
<g id="edge2" class="edge">
<title>Node2&#45;&gt;Node3</title>
<path fill="none" stroke="midnightblue" d="M142.52,-117.98C123.39,-108.08 91.63,-91.64 69.35,-80.12"/>
<polygon fill="midnightblue" stroke="midnightblue" points="70.94,-77 60.45,-75.51 67.72,-83.21 70.94,-77"/>
</g>
<!-- Node4 -->
<g id="node4" class="node">
<title>Node4</title>
<g id="a_node4"><a xlink:href="api_8h.html" target="_top" xlink:title=" ">
<polygon fill="white" stroke="black" points="105.5,-56.5 105.5,-75.5 212.5,-75.5 212.5,-56.5 105.5,-56.5"/>
<text text-anchor="middle" x="159" y="-63.5" font-family="Helvetica,sans-Serif" font-size="10.00">gnuradio/reader/api.h</text>
</a>
</g>
</g>
<!-- Node2&#45;&gt;Node4 -->
<g id="edge3" class="edge">
<title>Node2&#45;&gt;Node4</title>
<path fill="none" stroke="midnightblue" d="M159,-117.98C159,-109.58 159,-96.48 159,-85.66"/>
<polygon fill="midnightblue" stroke="midnightblue" points="162.5,-85.51 159,-75.51 155.5,-85.51 162.5,-85.51"/>
</g>
<!-- Node5 -->
<g id="node5" class="node">
<title>Node5</title>
<g id="a_node5"><a xlink:title=" ">
<polygon fill="white" stroke="#bfbfbf" points="106.5,-0.5 106.5,-19.5 211.5,-19.5 211.5,-0.5 106.5,-0.5"/>
<text text-anchor="middle" x="159" y="-7.5" font-family="Helvetica,sans-Serif" font-size="10.00">gnuradio/attributes.h</text>
</a>
</g>
</g>
<!-- Node4&#45;&gt;Node5 -->
<g id="edge4" class="edge">
<title>Node4&#45;&gt;Node5</title>
<path fill="none" stroke="midnightblue" d="M159,-56.08C159,-49.01 159,-38.86 159,-29.99"/>
<polygon fill="midnightblue" stroke="midnightblue" points="162.5,-29.75 159,-19.75 155.5,-29.75 162.5,-29.75"/>
</g>
<!-- Node6&#45;&gt;Node4 -->
<g id="edge6" class="edge">
<title>Node6&#45;&gt;Node4</title>
<path fill="none" stroke="midnightblue" d="M291,-112.4C261.37,-102.21 221.77,-88.59 193.7,-78.93"/>
<polygon fill="midnightblue" stroke="midnightblue" points="194.52,-75.51 183.92,-75.57 192.24,-82.13 194.52,-75.51"/>
</g>
<!-- Node6&#45;&gt;Node7 -->
<g id="edge7" class="edge">
<title>Node6&#45;&gt;Node7</title>
<path fill="none" stroke="midnightblue" d="M313.28,-112.4C301.09,-103.22 285.21,-91.26 272.81,-81.92"/>
<polygon fill="midnightblue" stroke="midnightblue" points="274.59,-78.88 264.5,-75.66 270.38,-84.47 274.59,-78.88"/>
</g>
<!-- Node8 -->
<g id="node8" class="node">
<title>Node8</title>
<g id="a_node8"><a xlink:title=" ">
<polygon fill="white" stroke="#bfbfbf" points="547.5,-56.5 547.5,-75.5 582.5,-75.5 582.5,-56.5 547.5,-56.5"/>
<text text-anchor="middle" x="565" y="-63.5" font-family="Helvetica,sans-Serif" font-size="10.00">map</text>
</a>
</g>
</g>
<!-- Node6&#45;&gt;Node8 -->
<g id="edge8" class="edge">
<title>Node6&#45;&gt;Node8</title>
<path fill="none" stroke="midnightblue" d="M388.28,-114C427.6,-104.98 481.48,-92.02 537.59,-75.94"/>
<polygon fill="midnightblue" stroke="midnightblue" points="538.71,-79.25 547.35,-73.11 536.77,-72.53 538.71,-79.25"/>
</g>
<!-- Node9 -->
<g id="node9" class="node">
<title>Node9</title>
<g id="a_node9"><a xlink:title=" ">
<polygon fill="white" stroke="#bfbfbf" points="293,-56.5 293,-75.5 355,-75.5 355,-56.5 293,-56.5"/>
<text text-anchor="middle" x="324" y="-63.5" font-family="Helvetica,sans-Serif" font-size="10.00">sys/time.h</text>
</a>
</g>
</g>
<!-- Node6&#45;&gt;Node9 -->
<g id="edge9" class="edge">
<title>Node6&#45;&gt;Node9</title>
<path fill="none" stroke="midnightblue" d="M330.1,-112.4C329.03,-104.38 327.66,-94.23 326.5,-85.57"/>
<polygon fill="midnightblue" stroke="midnightblue" points="329.97,-85.1 325.16,-75.66 323.03,-86.04 329.97,-85.1"/>
</g>
<!-- Node10 -->
<g id="node10" class="node">
<title>Node10</title>
<g id="a_node10"><a xlink:title=" ">
<polygon fill="white" stroke="#bfbfbf" points="373.5,-56.5 373.5,-75.5 420.5,-75.5 420.5,-56.5 373.5,-56.5"/>
<text text-anchor="middle" x="397" y="-63.5" font-family="Helvetica,sans-Serif" font-size="10.00">math.h</text>
</a>
</g>
</g>
<!-- Node6&#45;&gt;Node10 -->
<g id="edge10" class="edge">
<title>Node6&#45;&gt;Node10</title>
<path fill="none" stroke="midnightblue" d="M347.4,-112.4C357.24,-103.4 369.99,-91.72 380.11,-82.47"/>
<polygon fill="midnightblue" stroke="midnightblue" points="382.53,-84.99 387.54,-75.66 377.8,-79.83 382.53,-84.99"/>
</g>
<!-- Node11 -->
<g id="node11" class="node">
<title>Node11</title>
<g id="a_node11"><a xlink:title=" ">
<polygon fill="white" stroke="#bfbfbf" points="439,-56.5 439,-75.5 529,-75.5 529,-56.5 439,-56.5"/>
<text text-anchor="middle" x="484" y="-63.5" font-family="Helvetica,sans-Serif" font-size="10.00">gnuradio/logger.h</text>
</a>
</g>
</g>
<!-- Node6&#45;&gt;Node11 -->
<g id="edge11" class="edge">
<title>Node6&#45;&gt;Node11</title>
<path fill="none" stroke="midnightblue" d="M368.02,-112.4C393.64,-102.37 427.73,-89.03 452.31,-79.4"/>
<polygon fill="midnightblue" stroke="midnightblue" points="453.85,-82.56 461.88,-75.66 451.29,-76.04 453.85,-82.56"/>
</g>
</g>
</svg>
