<?xml version="1.0" encoding="UTF-8" standalone="no"?>
<!DOCTYPE svg PUBLIC "-//W3C//DTD SVG 1.1//EN"
 "http://www.w3.org/Graphics/SVG/1.1/DTD/svg11.dtd">
<!-- Generated by graphviz version 2.43.0 (0)
 -->
<!-- Title: Graphical Class Hierarchy Pages: 1 -->
<svg width="443pt" height="104pt"
 viewBox="0.00 0.00 443.00 104.00" xmlns="http://www.w3.org/2000/svg" xmlns:xlink="http://www.w3.org/1999/xlink">
<g id="graph0" class="graph" transform="scale(1 1) rotate(0) translate(4 100)">
<title>Graphical Class Hierarchy</title>
<polygon fill="white" stroke="transparent" points="-4,4 -4,-100 439,-100 439,4 -4,4"/>
<!-- Node1 -->
<g id="node1" class="node">
<title>Node1</title>
<g id="a_node1"><a xlink:href="classgr_1_1reader_1_1gate__impl.html" target="_top" xlink:title=" ">
<polygon fill="white" stroke="black" points="0,-57.5 0,-76.5 106,-76.5 106,-57.5 0,-57.5"/>
<text text-anchor="middle" x="53" y="-64.5" font-family="Helvetica,sans-Serif" font-size="10.00">gr::reader::gate_impl</text>
</a>
</g>
</g>
<!-- Node0 -->
<g id="node2" class="node">
<title>Node0</title>
<g id="a_node2"><a xlink:href="classgr_1_1reader_1_1gate.html" target="_top" xlink:title="&lt;+description of block+&gt;">
<polygon fill="white" stroke="black" points="159,-76.5 159,-95.5 242,-95.5 242,-76.5 159,-76.5"/>
<text text-anchor="middle" x="200.5" y="-83.5" font-family="Helvetica,sans-Serif" font-size="10.00">gr::reader::gate</text>
</a>
</g>
</g>
<!-- Node1&#45;&gt;Node0 -->
<g id="edge1" class="edge">
<title>Node1&#45;&gt;Node0</title>
<path fill="none" stroke="midnightblue" d="M116.21,-68.44C134.61,-70.62 153.92,-73.5 169.31,-76.46"/>
<polygon fill="midnightblue" stroke="midnightblue" points="116.45,-64.94 106.12,-67.3 115.66,-71.9 116.45,-64.94"/>
</g>
<!-- Node4 -->
<g id="node3" class="node">
<title>Node4</title>
<g id="a_node3"><a xlink:href="classgr_1_1reader_1_1reader.html" target="_top" xlink:title="&lt;+description of block+&gt;">
<polygon fill="white" stroke="black" points="155,-38.5 155,-57.5 246,-57.5 246,-38.5 155,-38.5"/>
<text text-anchor="middle" x="200.5" y="-45.5" font-family="Helvetica,sans-Serif" font-size="10.00">gr::reader::reader</text>
</a>
</g>
</g>
<!-- Node1&#45;&gt;Node4 -->
<g id="edge3" class="edge">
<title>Node1&#45;&gt;Node4</title>
<path fill="none" stroke="midnightblue" d="M116.39,-58.85C129.36,-57.16 142.79,-55.41 154.96,-53.82"/>
<polygon fill="midnightblue" stroke="midnightblue" points="115.58,-55.43 106.12,-60.19 116.49,-62.37 115.58,-55.43"/>
</g>
<!-- Node6 -->
<g id="node5" class="node">
<title>Node6</title>
<g id="a_node5"><a xlink:href="classgr_1_1reader_1_1tag__decoder.html" target="_top" xlink:title="&lt;+description of block+&gt;">
<polygon fill="white" stroke="black" points="142,-0.5 142,-19.5 259,-19.5 259,-0.5 142,-0.5"/>
<text text-anchor="middle" x="200.5" y="-7.5" font-family="Helvetica,sans-Serif" font-size="10.00">gr::reader::tag_decoder</text>
</a>
</g>
</g>
<!-- Node1&#45;&gt;Node6 -->
<g id="edge5" class="edge">
<title>Node1&#45;&gt;Node6</title>
<path fill="none" stroke="midnightblue" d="M84.11,-53.21C100.99,-45.68 122.5,-36.42 142,-29 150.65,-25.71 160.14,-22.44 168.88,-19.56"/>
<polygon fill="midnightblue" stroke="midnightblue" points="82.45,-50.12 74.77,-57.41 85.32,-56.5 82.45,-50.12"/>
</g>
<!-- Node0&#45;&gt;Node1 -->
<g id="edge2" class="edge">
<title>Node0&#45;&gt;Node1</title>
<path fill="none" stroke="midnightblue" d="M148.9,-85.86C127.3,-83.61 102.83,-80.12 84.15,-76.53"/>
<polygon fill="midnightblue" stroke="midnightblue" points="148.61,-89.34 158.9,-86.82 149.29,-82.38 148.61,-89.34"/>
</g>
<!-- Node5 -->
<g id="node4" class="node">
<title>Node5</title>
<g id="a_node4"><a xlink:href="classgr_1_1reader_1_1reader__impl.html" target="_top" xlink:title=" ">
<polygon fill="white" stroke="black" points="308,-38.5 308,-57.5 422,-57.5 422,-38.5 308,-38.5"/>
<text text-anchor="middle" x="365" y="-45.5" font-family="Helvetica,sans-Serif" font-size="10.00">gr::reader::reader_impl</text>
</a>
</g>
</g>
<!-- Node4&#45;&gt;Node5 -->
<g id="edge4" class="edge">
<title>Node4&#45;&gt;Node5</title>
<path fill="none" stroke="midnightblue" d="M256.44,-48C273.05,-48 291.31,-48 308,-48"/>
<polygon fill="midnightblue" stroke="midnightblue" points="256.33,-44.5 246.33,-48 256.33,-51.5 256.33,-44.5"/>
</g>
<!-- Node7 -->
<g id="node6" class="node">
<title>Node7</title>
<g id="a_node6"><a xlink:href="classgr_1_1reader_1_1tag__decoder__impl.html" target="_top" xlink:title=" ">
<polygon fill="white" stroke="black" points="295,-0.5 295,-19.5 435,-19.5 435,-0.5 295,-0.5"/>
<text text-anchor="middle" x="365" y="-7.5" font-family="Helvetica,sans-Serif" font-size="10.00">gr::reader::tag_decoder_impl</text>
</a>
</g>
</g>
<!-- Node6&#45;&gt;Node7 -->
<g id="edge6" class="edge">
<title>Node6&#45;&gt;Node7</title>
<path fill="none" stroke="midnightblue" d="M269.36,-10C277.76,-10 286.34,-10 294.76,-10"/>
<polygon fill="midnightblue" stroke="midnightblue" points="269.25,-6.5 259.25,-10 269.25,-13.5 269.25,-6.5"/>
</g>
</g>
</svg>
