<?xml version="1.0" encoding="UTF-8" standalone="no"?>
<!DOCTYPE svg PUBLIC "-//W3C//DTD SVG 1.1//EN"
 "http://www.w3.org/Graphics/SVG/1.1/DTD/svg11.dtd">
<!-- Generated by graphviz version 2.43.0 (0)
 -->
<!-- Title: reader_impl.h Pages: 1 -->
<svg width="399pt" height="196pt"
 viewBox="0.00 0.00 399.00 196.00" xmlns="http://www.w3.org/2000/svg" xmlns:xlink="http://www.w3.org/1999/xlink">
<g id="graph0" class="graph" transform="scale(1 1) rotate(0) translate(4 192)">
<title>reader_impl.h</title>
<polygon fill="white" stroke="transparent" points="-4,4 -4,-192 395,-192 395,4 -4,4"/>
<!-- Node1 -->
<g id="node1" class="node">
<title>Node1</title>
<g id="a_node1"><a xlink:title=" ">
<polygon fill="#bfbfbf" stroke="black" points="238.5,-168.5 238.5,-187.5 313.5,-187.5 313.5,-168.5 238.5,-168.5"/>
<text text-anchor="middle" x="276" y="-175.5" font-family="Helvetica,sans-Serif" font-size="10.00">reader_impl.h</text>
</a>
</g>
</g>
<!-- Node2 -->
<g id="node2" class="node">
<title>Node2</title>
<g id="a_node2"><a xlink:href="reader_8h.html" target="_top" xlink:title=" ">
<polygon fill="white" stroke="black" points="100.5,-112.5 100.5,-131.5 221.5,-131.5 221.5,-112.5 100.5,-112.5"/>
<text text-anchor="middle" x="161" y="-119.5" font-family="Helvetica,sans-Serif" font-size="10.00">gnuradio/reader/reader.h</text>
</a>
</g>
</g>
<!-- Node1&#45;&gt;Node2 -->
<g id="edge1" class="edge">
<title>Node1&#45;&gt;Node2</title>
<path fill="none" stroke="midnightblue" d="M257.78,-168.44C239.1,-159.68 209.84,-145.94 188.38,-135.86"/>
<polygon fill="midnightblue" stroke="midnightblue" points="189.68,-132.6 179.14,-131.52 186.7,-138.93 189.68,-132.6"/>
</g>
<!-- Node6 -->
<g id="node6" class="node">
<title>Node6</title>
<g id="a_node6"><a xlink:title=" ">
<polygon fill="white" stroke="#bfbfbf" points="231,-56.5 231,-75.5 275,-75.5 275,-56.5 231,-56.5"/>
<text text-anchor="middle" x="253" y="-63.5" font-family="Helvetica,sans-Serif" font-size="10.00">vector</text>
</a>
</g>
</g>
<!-- Node1&#45;&gt;Node6 -->
<g id="edge6" class="edge">
<title>Node1&#45;&gt;Node6</title>
<path fill="none" stroke="midnightblue" d="M274.2,-168.37C270.48,-150.62 261.92,-109.67 256.89,-85.6"/>
<polygon fill="midnightblue" stroke="midnightblue" points="260.27,-84.66 254.8,-75.59 253.42,-86.1 260.27,-84.66"/>
</g>
<!-- Node7 -->
<g id="node7" class="node">
<title>Node7</title>
<g id="a_node7"><a xlink:title=" ">
<polygon fill="white" stroke="#bfbfbf" points="279.5,-112.5 279.5,-131.5 322.5,-131.5 322.5,-112.5 279.5,-112.5"/>
<text text-anchor="middle" x="301" y="-119.5" font-family="Helvetica,sans-Serif" font-size="10.00">queue</text>
</a>
</g>
</g>
<!-- Node1&#45;&gt;Node7 -->
<g id="edge7" class="edge">
<title>Node1&#45;&gt;Node7</title>
<path fill="none" stroke="midnightblue" d="M280.13,-168.08C283.51,-160.77 288.42,-150.18 292.62,-141.1"/>
<polygon fill="midnightblue" stroke="midnightblue" points="295.92,-142.3 296.95,-131.75 289.57,-139.36 295.92,-142.3"/>
</g>
<!-- Node8 -->
<g id="node8" class="node">
<title>Node8</title>
<g id="a_node8"><a xlink:title=" ">
<polygon fill="white" stroke="#bfbfbf" points="341,-112.5 341,-131.5 391,-131.5 391,-112.5 341,-112.5"/>
<text text-anchor="middle" x="366" y="-119.5" font-family="Helvetica,sans-Serif" font-size="10.00">fstream</text>
</a>
</g>
</g>
<!-- Node1&#45;&gt;Node8 -->
<g id="edge8" class="edge">
<title>Node1&#45;&gt;Node8</title>
<path fill="none" stroke="midnightblue" d="M290.46,-168.32C304.5,-159.9 326.05,-146.97 342.54,-137.07"/>
<polygon fill="midnightblue" stroke="midnightblue" points="344.8,-139.8 351.58,-131.65 341.2,-133.8 344.8,-139.8"/>
</g>
<!-- Node3 -->
<g id="node3" class="node">
<title>Node3</title>
<g id="a_node3"><a xlink:title=" ">
<polygon fill="white" stroke="#bfbfbf" points="0,-56.5 0,-75.5 88,-75.5 88,-56.5 0,-56.5"/>
<text text-anchor="middle" x="44" y="-63.5" font-family="Helvetica,sans-Serif" font-size="10.00">gnuradio/block.h</text>
</a>
</g>
</g>
<!-- Node2&#45;&gt;Node3 -->
<g id="edge2" class="edge">
<title>Node2&#45;&gt;Node3</title>
<path fill="none" stroke="midnightblue" d="M142.46,-112.44C123.38,-103.64 93.43,-89.81 71.56,-79.72"/>
<polygon fill="midnightblue" stroke="midnightblue" points="73,-76.53 62.45,-75.52 70.07,-82.88 73,-76.53"/>
</g>
<!-- Node4 -->
<g id="node4" class="node">
<title>Node4</title>
<g id="a_node4"><a xlink:href="api_8h.html" target="_top" xlink:title=" ">
<polygon fill="white" stroke="black" points="105.5,-56.5 105.5,-75.5 212.5,-75.5 212.5,-56.5 105.5,-56.5"/>
<text text-anchor="middle" x="159" y="-63.5" font-family="Helvetica,sans-Serif" font-size="10.00">gnuradio/reader/api.h</text>
</a>
</g>
</g>
<!-- Node2&#45;&gt;Node4 -->
<g id="edge3" class="edge">
<title>Node2&#45;&gt;Node4</title>
<path fill="none" stroke="midnightblue" d="M160.67,-112.08C160.41,-105.01 160.03,-94.86 159.7,-85.99"/>
<polygon fill="midnightblue" stroke="midnightblue" points="163.19,-85.61 159.32,-75.75 156.2,-85.87 163.19,-85.61"/>
</g>
<!-- Node2&#45;&gt;Node6 -->
<g id="edge5" class="edge">
<title>Node2&#45;&gt;Node6</title>
<path fill="none" stroke="midnightblue" d="M175.78,-112.32C190.27,-103.82 212.57,-90.73 229.49,-80.8"/>
<polygon fill="midnightblue" stroke="midnightblue" points="231.4,-83.74 238.26,-75.65 227.86,-77.7 231.4,-83.74"/>
</g>
<!-- Node5 -->
<g id="node5" class="node">
<title>Node5</title>
<g id="a_node5"><a xlink:title=" ">
<polygon fill="white" stroke="#bfbfbf" points="106.5,-0.5 106.5,-19.5 211.5,-19.5 211.5,-0.5 106.5,-0.5"/>
<text text-anchor="middle" x="159" y="-7.5" font-family="Helvetica,sans-Serif" font-size="10.00">gnuradio/attributes.h</text>
</a>
</g>
</g>
<!-- Node4&#45;&gt;Node5 -->
<g id="edge4" class="edge">
<title>Node4&#45;&gt;Node5</title>
<path fill="none" stroke="midnightblue" d="M159,-56.08C159,-49.01 159,-38.86 159,-29.99"/>
<polygon fill="midnightblue" stroke="midnightblue" points="162.5,-29.75 159,-19.75 155.5,-29.75 162.5,-29.75"/>
</g>
</g>
</svg>
