<?xml version="1.0" encoding="UTF-8" standalone="no"?>
<!DOCTYPE svg PUBLIC "-//W3C//DTD SVG 1.1//EN"
 "http://www.w3.org/Graphics/SVG/1.1/DTD/svg11.dtd">
<!-- Generated by graphviz version 2.43.0 (0)
 -->
<!-- Title: reader_impl.h Pages: 1 -->
<svg width="362pt" height="196pt"
 viewBox="0.00 0.00 362.00 196.00" xmlns="http://www.w3.org/2000/svg" xmlns:xlink="http://www.w3.org/1999/xlink">
<g id="graph0" class="graph" transform="scale(1 1) rotate(0) translate(4 192)">
<title>reader_impl.h</title>
<polygon fill="white" stroke="transparent" points="-4,4 -4,-192 358,-192 358,4 -4,4"/>
<!-- Node1 -->
<g id="node1" class="node">
<title>Node1</title>
<g id="a_node1"><a xlink:title=" ">
<polygon fill="#bfbfbf" stroke="black" points="195.5,-168.5 195.5,-187.5 270.5,-187.5 270.5,-168.5 195.5,-168.5"/>
<text text-anchor="middle" x="233" y="-175.5" font-family="Helvetica,sans-Serif" font-size="10.00">reader_impl.h</text>
</a>
</g>
</g>
<!-- Node2 -->
<g id="node2" class="node">
<title>Node2</title>
<g id="a_node2"><a xlink:href="reader_8h.html" target="_top" xlink:title=" ">
<polygon fill="white" stroke="black" points="40.5,-112.5 40.5,-131.5 161.5,-131.5 161.5,-112.5 40.5,-112.5"/>
<text text-anchor="middle" x="101" y="-119.5" font-family="Helvetica,sans-Serif" font-size="10.00">gnuradio/reader/reader.h</text>
</a>
</g>
</g>
<!-- Node1&#45;&gt;Node2 -->
<g id="edge1" class="edge">
<title>Node1&#45;&gt;Node2</title>
<path fill="none" stroke="midnightblue" d="M212.08,-168.44C190.26,-159.52 155.85,-145.44 131.11,-135.32"/>
<polygon fill="midnightblue" stroke="midnightblue" points="132.4,-132.06 121.82,-131.52 129.75,-138.54 132.4,-132.06"/>
</g>
<!-- Node6 -->
<g id="node6" class="node">
<title>Node6</title>
<g id="a_node6"><a xlink:title=" ">
<polygon fill="white" stroke="#bfbfbf" points="180,-112.5 180,-131.5 224,-131.5 224,-112.5 180,-112.5"/>
<text text-anchor="middle" x="202" y="-119.5" font-family="Helvetica,sans-Serif" font-size="10.00">vector</text>
</a>
</g>
</g>
<!-- Node1&#45;&gt;Node6 -->
<g id="edge5" class="edge">
<title>Node1&#45;&gt;Node6</title>
<path fill="none" stroke="midnightblue" d="M227.88,-168.08C223.59,-160.61 217.34,-149.72 212.06,-140.52"/>
<polygon fill="midnightblue" stroke="midnightblue" points="215.04,-138.68 207.02,-131.75 208.97,-142.17 215.04,-138.68"/>
</g>
<!-- Node7 -->
<g id="node7" class="node">
<title>Node7</title>
<g id="a_node7"><a xlink:title=" ">
<polygon fill="white" stroke="#bfbfbf" points="242.5,-112.5 242.5,-131.5 285.5,-131.5 285.5,-112.5 242.5,-112.5"/>
<text text-anchor="middle" x="264" y="-119.5" font-family="Helvetica,sans-Serif" font-size="10.00">queue</text>
</a>
</g>
</g>
<!-- Node1&#45;&gt;Node7 -->
<g id="edge6" class="edge">
<title>Node1&#45;&gt;Node7</title>
<path fill="none" stroke="midnightblue" d="M238.12,-168.08C242.41,-160.61 248.66,-149.72 253.94,-140.52"/>
<polygon fill="midnightblue" stroke="midnightblue" points="257.03,-142.17 258.98,-131.75 250.96,-138.68 257.03,-142.17"/>
</g>
<!-- Node8 -->
<g id="node8" class="node">
<title>Node8</title>
<g id="a_node8"><a xlink:title=" ">
<polygon fill="white" stroke="#bfbfbf" points="304,-112.5 304,-131.5 354,-131.5 354,-112.5 304,-112.5"/>
<text text-anchor="middle" x="329" y="-119.5" font-family="Helvetica,sans-Serif" font-size="10.00">fstream</text>
</a>
</g>
</g>
<!-- Node1&#45;&gt;Node8 -->
<g id="edge7" class="edge">
<title>Node1&#45;&gt;Node8</title>
<path fill="none" stroke="midnightblue" d="M248.42,-168.32C263.54,-159.82 286.82,-146.73 304.47,-136.8"/>
<polygon fill="midnightblue" stroke="midnightblue" points="306.61,-139.61 313.61,-131.65 303.18,-133.51 306.61,-139.61"/>
</g>
<!-- Node3 -->
<g id="node3" class="node">
<title>Node3</title>
<g id="a_node3"><a xlink:title=" ">
<polygon fill="white" stroke="#bfbfbf" points="0,-56.5 0,-75.5 88,-75.5 88,-56.5 0,-56.5"/>
<text text-anchor="middle" x="44" y="-63.5" font-family="Helvetica,sans-Serif" font-size="10.00">gnuradio/block.h</text>
</a>
</g>
</g>
<!-- Node2&#45;&gt;Node3 -->
<g id="edge2" class="edge">
<title>Node2&#45;&gt;Node3</title>
<path fill="none" stroke="midnightblue" d="M91.84,-112.32C83.5,-104.42 70.97,-92.55 60.82,-82.94"/>
<polygon fill="midnightblue" stroke="midnightblue" points="62.99,-80.17 53.32,-75.83 58.18,-85.25 62.99,-80.17"/>
</g>
<!-- Node4 -->
<g id="node4" class="node">
<title>Node4</title>
<g id="a_node4"><a xlink:href="api_8h.html" target="_top" xlink:title=" ">
<polygon fill="white" stroke="black" points="105.5,-56.5 105.5,-75.5 212.5,-75.5 212.5,-56.5 105.5,-56.5"/>
<text text-anchor="middle" x="159" y="-63.5" font-family="Helvetica,sans-Serif" font-size="10.00">gnuradio/reader/api.h</text>
</a>
</g>
</g>
<!-- Node2&#45;&gt;Node4 -->
<g id="edge3" class="edge">
<title>Node2&#45;&gt;Node4</title>
<path fill="none" stroke="midnightblue" d="M110.32,-112.32C118.89,-104.34 131.81,-92.31 142.19,-82.65"/>
<polygon fill="midnightblue" stroke="midnightblue" points="144.58,-85.21 149.51,-75.83 139.81,-80.09 144.58,-85.21"/>
</g>
<!-- Node5 -->
<g id="node5" class="node">
<title>Node5</title>
<g id="a_node5"><a xlink:title=" ">
<polygon fill="white" stroke="#bfbfbf" points="106.5,-0.5 106.5,-19.5 211.5,-19.5 211.5,-0.5 106.5,-0.5"/>
<text text-anchor="middle" x="159" y="-7.5" font-family="Helvetica,sans-Serif" font-size="10.00">gnuradio/attributes.h</text>
</a>
</g>
</g>
<!-- Node4&#45;&gt;Node5 -->
<g id="edge4" class="edge">
<title>Node4&#45;&gt;Node5</title>
<path fill="none" stroke="midnightblue" d="M159,-56.08C159,-49.01 159,-38.86 159,-29.99"/>
<polygon fill="midnightblue" stroke="midnightblue" points="162.5,-29.75 159,-19.75 155.5,-29.75 162.5,-29.75"/>
</g>
</g>
</svg>
