<?xml version="1.0" encoding="UTF-8" standalone="no"?>
<!DOCTYPE svg PUBLIC "-//W3C//DTD SVG 1.1//EN"
 "http://www.w3.org/Graphics/SVG/1.1/DTD/svg11.dtd">
<!-- Generated by graphviz version 2.43.0 (0)
 -->
<!-- Title: tag_decoder_impl.h Pages: 1 -->
<svg width="486pt" height="274pt"
 viewBox="0.00 0.00 485.50 274.00" xmlns="http://www.w3.org/2000/svg" xmlns:xlink="http://www.w3.org/1999/xlink">
<g id="graph0" class="graph" transform="scale(1 1) rotate(0) translate(4 270)">
<title>tag_decoder_impl.h</title>
<polygon fill="white" stroke="transparent" points="-4,4 -4,-270 481.5,-270 481.5,4 -4,4"/>
<!-- Node1 -->
<g id="node1" class="node">
<title>Node1</title>
<g id="a_node1"><a xlink:title=" ">
<polygon fill="#bfbfbf" stroke="black" points="230,-246.5 230,-265.5 331,-265.5 331,-246.5 230,-246.5"/>
<text text-anchor="middle" x="280.5" y="-253.5" font-family="Helvetica,sans-Serif" font-size="10.00">tag_decoder_impl.h</text>
</a>
</g>
</g>
<!-- Node2 -->
<g id="node2" class="node">
<title>Node2</title>
<g id="a_node2"><a xlink:href="tag__decoder_8h.html" target="_top" xlink:title=" ">
<polygon fill="white" stroke="black" points="188.5,-179.5 188.5,-209.5 288.5,-209.5 288.5,-179.5 188.5,-179.5"/>
<text text-anchor="start" x="196.5" y="-197.5" font-family="Helvetica,sans-Serif" font-size="10.00">gnuradio/reader/tag</text>
<text text-anchor="middle" x="238.5" y="-186.5" font-family="Helvetica,sans-Serif" font-size="10.00">_decoder.h</text>
</a>
</g>
</g>
<!-- Node1&#45;&gt;Node2 -->
<g id="edge1" class="edge">
<title>Node1&#45;&gt;Node2</title>
<path fill="none" stroke="midnightblue" d="M274.48,-246.48C269.22,-239.02 261.34,-227.85 254.29,-217.87"/>
<polygon fill="midnightblue" stroke="midnightblue" points="257.02,-215.67 248.4,-209.52 251.31,-219.71 257.02,-215.67"/>
</g>
<!-- Node7 -->
<g id="node7" class="node">
<title>Node7</title>
<g id="a_node7"><a xlink:title=" ">
<polygon fill="white" stroke="#bfbfbf" points="433.5,-56.5 433.5,-75.5 477.5,-75.5 477.5,-56.5 433.5,-56.5"/>
<text text-anchor="middle" x="455.5" y="-63.5" font-family="Helvetica,sans-Serif" font-size="10.00">vector</text>
</a>
</g>
</g>
<!-- Node1&#45;&gt;Node7 -->
<g id="edge12" class="edge">
<title>Node1&#45;&gt;Node7</title>
<path fill="none" stroke="midnightblue" d="M288.47,-246.43C315.58,-217.32 404.45,-121.84 440.3,-83.32"/>
<polygon fill="midnightblue" stroke="midnightblue" points="443.23,-85.32 447.48,-75.62 438.1,-80.55 443.23,-85.32"/>
</g>
<!-- Node3 -->
<g id="node3" class="node">
<title>Node3</title>
<g id="a_node3"><a xlink:title=" ">
<polygon fill="white" stroke="#bfbfbf" points="135.5,-118 135.5,-137 223.5,-137 223.5,-118 135.5,-118"/>
<text text-anchor="middle" x="179.5" y="-125" font-family="Helvetica,sans-Serif" font-size="10.00">gnuradio/block.h</text>
</a>
</g>
</g>
<!-- Node2&#45;&gt;Node3 -->
<g id="edge2" class="edge">
<title>Node2&#45;&gt;Node3</title>
<path fill="none" stroke="midnightblue" d="M225.7,-179.4C216.41,-169.16 203.82,-155.3 194.13,-144.62"/>
<polygon fill="midnightblue" stroke="midnightblue" points="196.7,-142.25 187.39,-137.19 191.52,-146.95 196.7,-142.25"/>
</g>
<!-- Node4 -->
<g id="node4" class="node">
<title>Node4</title>
<g id="a_node4"><a xlink:href="api_8h.html" target="_top" xlink:title=" ">
<polygon fill="white" stroke="black" points="0,-56.5 0,-75.5 107,-75.5 107,-56.5 0,-56.5"/>
<text text-anchor="middle" x="53.5" y="-63.5" font-family="Helvetica,sans-Serif" font-size="10.00">gnuradio/reader/api.h</text>
</a>
</g>
</g>
<!-- Node2&#45;&gt;Node4 -->
<g id="edge3" class="edge">
<title>Node2&#45;&gt;Node4</title>
<path fill="none" stroke="midnightblue" d="M197.64,-179.44C175.5,-170.77 148.28,-158.37 126.5,-143 102.54,-126.09 79.96,-100.55 66.43,-83.83"/>
<polygon fill="midnightblue" stroke="midnightblue" points="68.84,-81.23 59.89,-75.55 63.34,-85.57 68.84,-81.23"/>
</g>
<!-- Node6 -->
<g id="node6" class="node">
<title>Node6</title>
<g id="a_node6"><a xlink:href="global__vars_8h.html" target="_top" xlink:title=" ">
<polygon fill="white" stroke="black" points="241.5,-112.5 241.5,-142.5 353.5,-142.5 353.5,-112.5 241.5,-112.5"/>
<text text-anchor="start" x="249.5" y="-130.5" font-family="Helvetica,sans-Serif" font-size="10.00">gnuradio/reader/global</text>
<text text-anchor="middle" x="297.5" y="-119.5" font-family="Helvetica,sans-Serif" font-size="10.00">_vars.h</text>
</a>
</g>
</g>
<!-- Node2&#45;&gt;Node6 -->
<g id="edge5" class="edge">
<title>Node2&#45;&gt;Node6</title>
<path fill="none" stroke="midnightblue" d="M251.3,-179.4C259.03,-170.88 269.05,-159.85 277.77,-150.23"/>
<polygon fill="midnightblue" stroke="midnightblue" points="280.59,-152.33 284.72,-142.58 275.41,-147.63 280.59,-152.33"/>
</g>
<!-- Node5 -->
<g id="node5" class="node">
<title>Node5</title>
<g id="a_node5"><a xlink:title=" ">
<polygon fill="white" stroke="#bfbfbf" points="1,-0.5 1,-19.5 106,-19.5 106,-0.5 1,-0.5"/>
<text text-anchor="middle" x="53.5" y="-7.5" font-family="Helvetica,sans-Serif" font-size="10.00">gnuradio/attributes.h</text>
</a>
</g>
</g>
<!-- Node4&#45;&gt;Node5 -->
<g id="edge4" class="edge">
<title>Node4&#45;&gt;Node5</title>
<path fill="none" stroke="midnightblue" d="M53.5,-56.08C53.5,-49.01 53.5,-38.86 53.5,-29.99"/>
<polygon fill="midnightblue" stroke="midnightblue" points="57,-29.75 53.5,-19.75 50,-29.75 57,-29.75"/>
</g>
<!-- Node6&#45;&gt;Node4 -->
<g id="edge6" class="edge">
<title>Node6&#45;&gt;Node4</title>
<path fill="none" stroke="midnightblue" d="M241.22,-112.77C197.75,-102.18 138.42,-87.71 98.18,-77.9"/>
<polygon fill="midnightblue" stroke="midnightblue" points="98.93,-74.48 88.39,-75.51 97.27,-81.28 98.93,-74.48"/>
</g>
<!-- Node6&#45;&gt;Node7 -->
<g id="edge7" class="edge">
<title>Node6&#45;&gt;Node7</title>
<path fill="none" stroke="midnightblue" d="M334.94,-112.4C362.01,-102.21 398.18,-88.59 423.82,-78.93"/>
<polygon fill="midnightblue" stroke="midnightblue" points="425.3,-82.11 433.43,-75.31 422.83,-75.56 425.3,-82.11"/>
</g>
<!-- Node8 -->
<g id="node8" class="node">
<title>Node8</title>
<g id="a_node8"><a xlink:title=" ">
<polygon fill="white" stroke="#bfbfbf" points="380,-56.5 380,-75.5 415,-75.5 415,-56.5 380,-56.5"/>
<text text-anchor="middle" x="397.5" y="-63.5" font-family="Helvetica,sans-Serif" font-size="10.00">map</text>
</a>
</g>
</g>
<!-- Node6&#45;&gt;Node8 -->
<g id="edge8" class="edge">
<title>Node6&#45;&gt;Node8</title>
<path fill="none" stroke="midnightblue" d="M321.2,-112.4C337.23,-102.86 358.3,-90.32 374.24,-80.84"/>
<polygon fill="midnightblue" stroke="midnightblue" points="376.14,-83.78 382.95,-75.66 372.57,-77.76 376.14,-83.78"/>
</g>
<!-- Node9 -->
<g id="node9" class="node">
<title>Node9</title>
<g id="a_node9"><a xlink:title=" ">
<polygon fill="white" stroke="#bfbfbf" points="125.5,-56.5 125.5,-75.5 187.5,-75.5 187.5,-56.5 125.5,-56.5"/>
<text text-anchor="middle" x="156.5" y="-63.5" font-family="Helvetica,sans-Serif" font-size="10.00">sys/time.h</text>
</a>
</g>
</g>
<!-- Node6&#45;&gt;Node9 -->
<g id="edge9" class="edge">
<title>Node6&#45;&gt;Node9</title>
<path fill="none" stroke="midnightblue" d="M264.08,-112.4C240.53,-102.46 209.26,-89.26 186.51,-79.66"/>
<polygon fill="midnightblue" stroke="midnightblue" points="187.59,-76.32 177.02,-75.66 184.87,-82.77 187.59,-76.32"/>
</g>
<!-- Node10 -->
<g id="node10" class="node">
<title>Node10</title>
<g id="a_node10"><a xlink:title=" ">
<polygon fill="white" stroke="#bfbfbf" points="206,-56.5 206,-75.5 253,-75.5 253,-56.5 206,-56.5"/>
<text text-anchor="middle" x="229.5" y="-63.5" font-family="Helvetica,sans-Serif" font-size="10.00">math.h</text>
</a>
</g>
</g>
<!-- Node6&#45;&gt;Node10 -->
<g id="edge10" class="edge">
<title>Node6&#45;&gt;Node10</title>
<path fill="none" stroke="midnightblue" d="M281.38,-112.4C271.1,-103.4 257.75,-91.72 247.17,-82.47"/>
<polygon fill="midnightblue" stroke="midnightblue" points="249.23,-79.61 239.39,-75.66 244.62,-84.88 249.23,-79.61"/>
</g>
<!-- Node11 -->
<g id="node11" class="node">
<title>Node11</title>
<g id="a_node11"><a xlink:title=" ">
<polygon fill="white" stroke="#bfbfbf" points="271.5,-56.5 271.5,-75.5 361.5,-75.5 361.5,-56.5 271.5,-56.5"/>
<text text-anchor="middle" x="316.5" y="-63.5" font-family="Helvetica,sans-Serif" font-size="10.00">gnuradio/logger.h</text>
</a>
</g>
</g>
<!-- Node6&#45;&gt;Node11 -->
<g id="edge11" class="edge">
<title>Node6&#45;&gt;Node11</title>
<path fill="none" stroke="midnightblue" d="M302,-112.4C304.59,-104.29 307.88,-94.01 310.66,-85.28"/>
<polygon fill="midnightblue" stroke="midnightblue" points="314.03,-86.25 313.74,-75.66 307.36,-84.12 314.03,-86.25"/>
</g>
</g>
</svg>
