<?xml version="1.0" encoding="UTF-8" standalone="no"?>
<!DOCTYPE svg PUBLIC "-//W3C//DTD SVG 1.1//EN"
 "http://www.w3.org/Graphics/SVG/1.1/DTD/svg11.dtd">
<!-- Generated by graphviz version 2.43.0 (0)
 -->
<!-- Title: tag_decoder.h Pages: 1 -->
<svg width="514pt" height="207pt"
 viewBox="0.00 0.00 514.00 207.00" xmlns="http://www.w3.org/2000/svg" xmlns:xlink="http://www.w3.org/1999/xlink">
<g id="graph0" class="graph" transform="scale(1 1) rotate(0) translate(4 203)">
<title>tag_decoder.h</title>
<polygon fill="white" stroke="transparent" points="-4,4 -4,-203 510,-203 510,4 -4,4"/>
<!-- Node1 -->
<g id="node1" class="node">
<title>Node1</title>
<g id="a_node1"><a xlink:title=" ">
<polygon fill="#bfbfbf" stroke="black" points="77.5,-179.5 77.5,-198.5 154.5,-198.5 154.5,-179.5 77.5,-179.5"/>
<text text-anchor="middle" x="116" y="-186.5" font-family="Helvetica,sans-Serif" font-size="10.00">tag_decoder.h</text>
</a>
</g>
</g>
<!-- Node2 -->
<g id="node2" class="node">
<title>Node2</title>
<g id="a_node2"><a xlink:title=" ">
<polygon fill="white" stroke="#bfbfbf" points="0,-118 0,-137 88,-137 88,-118 0,-118"/>
<text text-anchor="middle" x="44" y="-125" font-family="Helvetica,sans-Serif" font-size="10.00">gnuradio/block.h</text>
</a>
</g>
</g>
<!-- Node1&#45;&gt;Node2 -->
<g id="edge1" class="edge">
<title>Node1&#45;&gt;Node2</title>
<path fill="none" stroke="midnightblue" d="M105.68,-179.48C94.35,-170.11 75.93,-154.88 62.16,-143.51"/>
<polygon fill="midnightblue" stroke="midnightblue" points="64.23,-140.68 54.3,-137.01 59.78,-146.08 64.23,-140.68"/>
</g>
<!-- Node3 -->
<g id="node3" class="node">
<title>Node3</title>
<g id="a_node3"><a xlink:href="api_8h.html" target="_top" xlink:title=" ">
<polygon fill="white" stroke="black" points="28.5,-56.5 28.5,-75.5 135.5,-75.5 135.5,-56.5 28.5,-56.5"/>
<text text-anchor="middle" x="82" y="-63.5" font-family="Helvetica,sans-Serif" font-size="10.00">gnuradio/reader/api.h</text>
</a>
</g>
</g>
<!-- Node1&#45;&gt;Node3 -->
<g id="edge2" class="edge">
<title>Node1&#45;&gt;Node3</title>
<path fill="none" stroke="midnightblue" d="M114,-179.05C110.75,-164.78 104,-136.03 97,-112 94.41,-103.09 91.19,-93.31 88.4,-85.15"/>
<polygon fill="midnightblue" stroke="midnightblue" points="91.66,-83.86 85.07,-75.57 85.05,-86.16 91.66,-83.86"/>
</g>
<!-- Node5 -->
<g id="node5" class="node">
<title>Node5</title>
<g id="a_node5"><a xlink:href="global__vars_8h.html" target="_top" xlink:title=" ">
<polygon fill="white" stroke="black" points="178,-112.5 178,-142.5 290,-142.5 290,-112.5 178,-112.5"/>
<text text-anchor="start" x="186" y="-130.5" font-family="Helvetica,sans-Serif" font-size="10.00">gnuradio/reader/global</text>
<text text-anchor="middle" x="234" y="-119.5" font-family="Helvetica,sans-Serif" font-size="10.00">_vars.h</text>
</a>
</g>
</g>
<!-- Node1&#45;&gt;Node5 -->
<g id="edge4" class="edge">
<title>Node1&#45;&gt;Node5</title>
<path fill="none" stroke="midnightblue" d="M132.91,-179.48C149.56,-171.08 175.55,-157.97 197.01,-147.15"/>
<polygon fill="midnightblue" stroke="midnightblue" points="198.84,-150.15 206.19,-142.52 195.68,-143.9 198.84,-150.15"/>
</g>
<!-- Node4 -->
<g id="node4" class="node">
<title>Node4</title>
<g id="a_node4"><a xlink:title=" ">
<polygon fill="white" stroke="#bfbfbf" points="29.5,-0.5 29.5,-19.5 134.5,-19.5 134.5,-0.5 29.5,-0.5"/>
<text text-anchor="middle" x="82" y="-7.5" font-family="Helvetica,sans-Serif" font-size="10.00">gnuradio/attributes.h</text>
</a>
</g>
</g>
<!-- Node3&#45;&gt;Node4 -->
<g id="edge3" class="edge">
<title>Node3&#45;&gt;Node4</title>
<path fill="none" stroke="midnightblue" d="M82,-56.08C82,-49.01 82,-38.86 82,-29.99"/>
<polygon fill="midnightblue" stroke="midnightblue" points="85.5,-29.75 82,-19.75 78.5,-29.75 85.5,-29.75"/>
</g>
<!-- Node5&#45;&gt;Node3 -->
<g id="edge5" class="edge">
<title>Node5&#45;&gt;Node3</title>
<path fill="none" stroke="midnightblue" d="M197.98,-112.4C172.36,-102.37 138.27,-89.03 113.69,-79.4"/>
<polygon fill="midnightblue" stroke="midnightblue" points="114.71,-76.04 104.12,-75.66 112.15,-82.56 114.71,-76.04"/>
</g>
<!-- Node6 -->
<g id="node6" class="node">
<title>Node6</title>
<g id="a_node6"><a xlink:title=" ">
<polygon fill="white" stroke="#bfbfbf" points="154,-56.5 154,-75.5 198,-75.5 198,-56.5 154,-56.5"/>
<text text-anchor="middle" x="176" y="-63.5" font-family="Helvetica,sans-Serif" font-size="10.00">vector</text>
</a>
</g>
</g>
<!-- Node5&#45;&gt;Node6 -->
<g id="edge6" class="edge">
<title>Node5&#45;&gt;Node6</title>
<path fill="none" stroke="midnightblue" d="M220.25,-112.4C211.65,-103.58 200.55,-92.18 191.61,-83.02"/>
<polygon fill="midnightblue" stroke="midnightblue" points="193.93,-80.38 184.44,-75.66 188.91,-85.26 193.93,-80.38"/>
</g>
<!-- Node7 -->
<g id="node7" class="node">
<title>Node7</title>
<g id="a_node7"><a xlink:title=" ">
<polygon fill="white" stroke="#bfbfbf" points="216.5,-56.5 216.5,-75.5 251.5,-75.5 251.5,-56.5 216.5,-56.5"/>
<text text-anchor="middle" x="234" y="-63.5" font-family="Helvetica,sans-Serif" font-size="10.00">map</text>
</a>
</g>
</g>
<!-- Node5&#45;&gt;Node7 -->
<g id="edge7" class="edge">
<title>Node5&#45;&gt;Node7</title>
<path fill="none" stroke="midnightblue" d="M234,-112.4C234,-104.47 234,-94.46 234,-85.86"/>
<polygon fill="midnightblue" stroke="midnightblue" points="237.5,-85.66 234,-75.66 230.5,-85.66 237.5,-85.66"/>
</g>
<!-- Node8 -->
<g id="node8" class="node">
<title>Node8</title>
<g id="a_node8"><a xlink:title=" ">
<polygon fill="white" stroke="#bfbfbf" points="270,-56.5 270,-75.5 332,-75.5 332,-56.5 270,-56.5"/>
<text text-anchor="middle" x="301" y="-63.5" font-family="Helvetica,sans-Serif" font-size="10.00">sys/time.h</text>
</a>
</g>
</g>
<!-- Node5&#45;&gt;Node8 -->
<g id="edge8" class="edge">
<title>Node5&#45;&gt;Node8</title>
<path fill="none" stroke="midnightblue" d="M249.88,-112.4C260.02,-103.4 273.16,-91.72 283.59,-82.47"/>
<polygon fill="midnightblue" stroke="midnightblue" points="286.1,-84.92 291.25,-75.66 281.45,-79.68 286.1,-84.92"/>
</g>
<!-- Node9 -->
<g id="node9" class="node">
<title>Node9</title>
<g id="a_node9"><a xlink:title=" ">
<polygon fill="white" stroke="#bfbfbf" points="350.5,-56.5 350.5,-75.5 397.5,-75.5 397.5,-56.5 350.5,-56.5"/>
<text text-anchor="middle" x="374" y="-63.5" font-family="Helvetica,sans-Serif" font-size="10.00">math.h</text>
</a>
</g>
</g>
<!-- Node5&#45;&gt;Node9 -->
<g id="edge9" class="edge">
<title>Node5&#45;&gt;Node9</title>
<path fill="none" stroke="midnightblue" d="M267.18,-112.4C290.56,-102.46 321.61,-89.26 344.21,-79.66"/>
<polygon fill="midnightblue" stroke="midnightblue" points="345.79,-82.79 353.63,-75.66 343.06,-76.35 345.79,-82.79"/>
</g>
<!-- Node10 -->
<g id="node10" class="node">
<title>Node10</title>
<g id="a_node10"><a xlink:title=" ">
<polygon fill="white" stroke="#bfbfbf" points="416,-56.5 416,-75.5 506,-75.5 506,-56.5 416,-56.5"/>
<text text-anchor="middle" x="461" y="-63.5" font-family="Helvetica,sans-Serif" font-size="10.00">gnuradio/logger.h</text>
</a>
</g>
</g>
<!-- Node5&#45;&gt;Node10 -->
<g id="edge10" class="edge">
<title>Node5&#45;&gt;Node10</title>
<path fill="none" stroke="midnightblue" d="M287.51,-112.47C327.53,-101.99 381.51,-87.84 418.57,-78.12"/>
<polygon fill="midnightblue" stroke="midnightblue" points="419.76,-81.43 428.55,-75.51 417.99,-74.66 419.76,-81.43"/>
</g>
</g>
</svg>
